# xmcd CD database file
#
# Track frame offsets:
#	150
#	20242
#	37377
#	51476
#	69733
#	89395
#	107786
#	124548
#	144975
#	161572
#	178752
#	197960
#	211040
#	225757
#	240390
#	257335
#	275332
#	294990
#	310773
#	328495
#	342942
#
# Disc length: 4764 seconds
#
# Revision: 2
# Processed by: cddbd v1.5.2PL0 Copyright (c) Steve Scherf et al.
# Submitted via: CDex 1.51
#
DISCID=38129a15
DTITLE=Various Artist - ZM-00's Disc-1
DYEAR=1900
DGENRE=Blues
TTITLE0=Leona Lewis - A Moment Like This
TTITLE1=Sugababes The - About You Now
TTITLE2=McFly - All About You
TTITLE3=Razorlight - America
TTITLE4=Estelle Ft Kanye West - American Boy (For Solo Female)
TTITLE5=Daniel Powter - Bad Day
TTITLE6=Sam Sparro - Black and Gold
TTITLE7=Leona Lewis - Bleeding Love
TTITLE8=Corrs The - BreathLess
TTITLE9=Kylie Minogue - Can't Get You Out Of My Head
TTITLE10=Avril Lavigne - Complicated
TTITLE11=Busted - Crash The Wedding
TTITLE12=Gnarls Barkley - Crazy
TTITLE13=Charlotte Church - Crazy Chick
TTITLE14=Pussycat Dolls THe - Don't Cha
TTITLE15=S Club 7 - Don't Stop Movin'
TTITLE16=Will Young - Evergreen
TTITLE17=JLS - Everybody In Love
TTITLE18=Cheryl Cole - Fight For This Love
TTITLE19=Infernal - From Paris To Berlin
TTITLE20=Mika - Grace Kelly
EXTD=
EXTT0=
EXTT1=
EXTT2=
EXTT3=
EXTT4=
EXTT5=
EXTT6=
EXTT7=
EXTT8=
EXTT9=
EXTT10=
EXTT11=
EXTT12=
EXTT13=
EXTT14=
EXTT15=
EXTT16=
EXTT17=
EXTT18=
EXTT19=
EXTT20=
PLAYORDER=
